<mxfile host="app.diagrams.net" modified="2024-05-27T14:13:32.119Z" agent="Mozilla/5.0 (Windows NT 10.0; Win64; x64) AppleWebKit/537.36 (KHTML, like Gecko) Chrome/123.0.0.0 Safari/537.36 OPR/109.0.0.0" etag="aElfk4tqLGvNYuwlFiRu" version="24.4.9" type="github">
  <diagram name="Página-1" id="j3reNlxHitcpauJxPV7F">
    <mxGraphModel dx="1236" dy="567" grid="1" gridSize="10" guides="1" tooltips="1" connect="1" arrows="1" fold="1" page="1" pageScale="1" pageWidth="827" pageHeight="1169" math="0" shadow="0">
      <root>
        <mxCell id="0" />
        <mxCell id="1" parent="0" />
        <mxCell id="86VecYSXjzcAXP2YpM8D-1" value="Instrutor" style="shape=umlActor;verticalLabelPosition=bottom;verticalAlign=top;html=1;outlineConnect=0;" vertex="1" parent="1">
          <mxGeometry x="80" y="60" width="30" height="60" as="geometry" />
        </mxCell>
        <mxCell id="86VecYSXjzcAXP2YpM8D-4" value="&lt;p style=&quot;language:pt-BR;line-height:107%;margin-top:0pt;margin-bottom:6.0pt;&#xa;margin-left:.64in;margin-right:.2in;text-align:justify;text-justify:inter-ideograph;&#xa;direction:ltr;unicode-bidi:embed;mso-line-break-override:none;word-break:normal;&#xa;punctuation-wrap:hanging&quot;&gt;&lt;span style=&quot;font-size:16.0pt;font-family:Calibri;&#xa;mso-ascii-font-family:Calibri;mso-fareast-font-family:Calibri;mso-bidi-font-family:&#xa;Calibri;color:black;mso-font-kerning:12.0pt;language:pt-BR;font-style:italic;&#xa;mso-style-textfill-type:solid;mso-style-textfill-fill-color:black;mso-style-textfill-fill-alpha:&#xa;100.0%&quot;&gt;1 Uma academia de ginástica deseja manter um controle do seu&#xa;funcionamento.&lt;/span&gt;&lt;/p&gt;&#xa;&#xa;&lt;p style=&quot;language:pt-BR;line-height:107%;margin-top:0pt;margin-bottom:6.0pt;&#xa;margin-left:.64in;margin-right:.2in;text-align:justify;text-justify:inter-ideograph;&#xa;direction:ltr;unicode-bidi:embed;mso-line-break-override:none;word-break:normal;&#xa;punctuation-wrap:hanging&quot;&gt;&lt;span style=&quot;font-size:16.0pt;font-family:Calibri;&#xa;mso-ascii-font-family:Calibri;mso-fareast-font-family:Calibri;mso-bidi-font-family:&#xa;&amp;quot;Times New Roman&amp;quot;;color:black;mso-font-kerning:12.0pt;language:pt-BR;&#xa;font-style:italic;mso-style-textfill-type:solid;mso-style-textfill-fill-color:&#xa;black;mso-style-textfill-fill-alpha:100.0%&quot;&gt;2&lt;/span&gt;&lt;span style=&quot;font-size:&#xa;16.0pt;font-family:Calibri;mso-ascii-font-family:Calibri;mso-fareast-font-family:&#xa;Calibri;mso-bidi-font-family:&amp;quot;Times New Roman&amp;quot;;color:black;mso-font-kerning:&#xa;12.0pt;language:pt-BR;font-style:italic;mso-style-textfill-type:solid;&#xa;mso-style-textfill-fill-color:black;mso-style-textfill-fill-alpha:100.0%&quot;&gt; &lt;/span&gt;&lt;span style=&quot;font-size:16.0pt;font-family:Calibri;mso-ascii-font-family:Calibri;&#xa;mso-fareast-font-family:Calibri;mso-bidi-font-family:&amp;quot;Times New Roman&amp;quot;;&#xa;color:black;mso-font-kerning:12.0pt;language:pt-BR;font-style:italic;&#xa;mso-style-textfill-type:solid;mso-style-textfill-fill-color:black;mso-style-textfill-fill-alpha:&#xa;100.0%&quot;&gt;Os alunos são organizados em turmas associadas a um tipo específico de&#xa;atividade &lt;/span&gt;&lt;span style=&quot;font-size:16.0pt;font-family:Calibri;mso-ascii-font-family:&#xa;Calibri;mso-fareast-font-family:Calibri;mso-bidi-font-family:&amp;quot;Times New Roman&amp;quot;;&#xa;color:white;mso-color-index:14;mso-font-kerning:12.0pt;language:pt-BR;&#xa;font-style:italic;mso-style-textfill-type:solid;mso-style-textfill-fill-themecolor:&#xa;light1;mso-style-textfill-fill-color:white;mso-style-textfill-fill-alpha:100.0%&quot;&gt;física.&lt;/span&gt;&lt;/p&gt;&#xa;&#xa;&lt;p style=&quot;language:pt-BR;line-height:107%;margin-top:0pt;margin-bottom:6.0pt;&#xa;margin-left:.64in;margin-right:.2in;text-align:justify;text-justify:inter-ideograph;&#xa;direction:ltr;unicode-bidi:embed;mso-line-break-override:none;word-break:normal;&#xa;punctuation-wrap:hanging&quot;&gt;&lt;span style=&quot;font-size:16.0pt;font-family:Calibri;&#xa;mso-ascii-font-family:Calibri;mso-fareast-font-family:Calibri;mso-bidi-font-family:&#xa;Calibri;color:black;mso-font-kerning:12.0pt;language:pt-BR;font-style:italic;&#xa;mso-style-textfill-type:solid;mso-style-textfill-fill-color:black;mso-style-textfill-fill-alpha:&#xa;100.0%&quot;&gt;3 As informações sobre uma turma são número de alunos, horário da aula,&#xa;duração da aula, data inicial, data final e tipo de atividade.&lt;/span&gt;&lt;/p&gt;&#xa;&#xa;&lt;p style=&quot;language:pt-BR;line-height:107%;margin-top:0pt;margin-bottom:6.0pt;&#xa;margin-left:.64in;margin-right:.2in;text-align:justify;text-justify:inter-ideograph;&#xa;direction:ltr;unicode-bidi:embed;mso-line-break-override:none;word-break:normal;&#xa;punctuation-wrap:hanging&quot;&gt;&lt;span style=&quot;font-size:16.0pt;font-family:Calibri;&#xa;mso-ascii-font-family:Calibri;mso-fareast-font-family:Calibri;mso-bidi-font-family:&#xa;Calibri;color:black;mso-font-kerning:12.0pt;language:pt-BR;font-style:italic;&#xa;mso-style-textfill-type:solid;mso-style-textfill-fill-color:black;mso-style-textfill-fill-alpha:&#xa;100.0%&quot;&gt;4 Cada turma é orientada por um único docente para o qual são&#xa;cadastrados RG, nome, data de nascimento, titulação e&lt;span style=&quot;mso-spacerun:yes&quot;&gt;&amp;nbsp; &lt;/span&gt;todos os telefones possíveis para sua&#xa;localização. &lt;/span&gt;&lt;/p&gt;&#xa;&#xa;&lt;p style=&quot;language:pt-BR;line-height:107%;margin-top:0pt;margin-bottom:6.0pt;&#xa;margin-left:.64in;margin-right:.2in;text-align:justify;text-justify:inter-ideograph;&#xa;direction:ltr;unicode-bidi:embed;mso-line-break-override:none;word-break:normal;&#xa;punctuation-wrap:hanging&quot;&gt;&lt;span style=&quot;font-size:16.0pt;font-family:Calibri;&#xa;mso-ascii-font-family:Calibri;mso-fareast-font-family:Calibri;mso-bidi-font-family:&#xa;Calibri;color:black;mso-font-kerning:12.0pt;language:pt-BR;font-style:italic;&#xa;mso-style-textfill-type:solid;mso-style-textfill-fill-color:black;mso-style-textfill-fill-alpha:&#xa;100.0%&quot;&gt;5 Um docente pode orientar várias turmas que podem ser de diferentes&#xa;atividades. &lt;/span&gt;&lt;/p&gt;&#xa;&#xa;&lt;p style=&quot;language:pt-BR;line-height:107%;margin-top:0pt;margin-bottom:6.0pt;&#xa;margin-left:.64in;margin-right:.2in;text-align:justify;text-justify:inter-ideograph;&#xa;direction:ltr;unicode-bidi:embed;mso-line-break-override:none;word-break:normal;&#xa;punctuation-wrap:hanging&quot;&gt;&lt;span style=&quot;font-size:16.0pt;font-family:Calibri;&#xa;mso-ascii-font-family:Calibri;mso-fareast-font-family:Calibri;mso-bidi-font-family:&#xa;Calibri;color:black;mso-font-kerning:12.0pt;language:pt-BR;font-style:italic;&#xa;mso-style-textfill-type:solid;mso-style-textfill-fill-color:black;mso-style-textfill-fill-alpha:&#xa;100.0%&quot;&gt;6 Para cada turma existe um aluno monitor que auxilia o docente da&#xa;turma, sendo que um aluno pode ser monitor, no máximo, em uma turma.&lt;/span&gt;&lt;/p&gt;&#xa;&#xa;&lt;p style=&quot;language:pt-BR;line-height:107%;margin-top:0pt;margin-bottom:6.0pt;&#xa;margin-left:.64in;margin-right:.2in;text-align:justify;text-justify:inter-ideograph;&#xa;direction:ltr;unicode-bidi:embed;mso-line-break-override:none;word-break:normal;&#xa;punctuation-wrap:hanging&quot;&gt;&lt;span style=&quot;font-size:16.0pt;font-family:Calibri;&#xa;mso-ascii-font-family:Calibri;mso-fareast-font-family:Calibri;mso-bidi-font-family:&#xa;Calibri;color:black;mso-font-kerning:12.0pt;language:pt-BR;font-style:italic;&#xa;mso-style-textfill-type:solid;mso-style-textfill-fill-color:black;mso-style-textfill-fill-alpha:&#xa;100.0%&quot;&gt;7 Os dados cadastrados dos alunos são: código de matrícula, data de&#xa;matrícula, nome, endereço, telefone, data de nascimento, altura e peso. &lt;/span&gt;&lt;/p&gt;&#xa;&#xa;&lt;p style=&quot;language:pt-BR;line-height:107%;margin-top:0pt;margin-bottom:6.0pt;&#xa;margin-left:.64in;margin-right:.2in;text-align:justify;text-justify:inter-ideograph;&#xa;direction:ltr;unicode-bidi:embed;mso-line-break-override:none;word-break:normal;&#xa;punctuation-wrap:hanging&quot;&gt;&lt;span style=&quot;font-size:16.0pt;font-family:Calibri;&#xa;mso-ascii-font-family:Calibri;mso-fareast-font-family:Calibri;mso-bidi-font-family:&#xa;Calibri;color:black;mso-font-kerning:12.0pt;language:pt-BR;font-style:italic;&#xa;mso-style-textfill-type:solid;mso-style-textfill-fill-color:black;mso-style-textfill-fill-alpha:&#xa;100.0%&quot;&gt;8 Um aluno pode estar matriculado em várias turmas se deseja realizar&#xa;atividades diferentes e, para cada matrícula, é mantido um registro das&#xa;ausências dele (para efeito de ações de marketing e premiações aos alunos)&lt;/span&gt;&lt;span style=&quot;font-size:16.0pt;font-family:Calibri;mso-ascii-font-family:Calibri;&#xa;mso-fareast-font-family:Calibri;mso-bidi-font-family:Calibri;color:black;&#xa;mso-font-kerning:12.0pt;language:pt-BR;mso-style-textfill-type:solid;&#xa;mso-style-textfill-fill-color:black;mso-style-textfill-fill-alpha:100.0%&quot;&gt;.&lt;/span&gt;&lt;/p&gt;" style="text;whiteSpace=wrap;html=1;" vertex="1" parent="1">
          <mxGeometry x="580" y="20" width="530" height="790" as="geometry" />
        </mxCell>
        <mxCell id="86VecYSXjzcAXP2YpM8D-15" style="edgeStyle=orthogonalEdgeStyle;rounded=0;orthogonalLoop=1;jettySize=auto;html=1;exitX=0.75;exitY=1;exitDx=0;exitDy=0;" edge="1" parent="1" source="86VecYSXjzcAXP2YpM8D-5" target="86VecYSXjzcAXP2YpM8D-12">
          <mxGeometry relative="1" as="geometry" />
        </mxCell>
        <mxCell id="86VecYSXjzcAXP2YpM8D-17" style="edgeStyle=orthogonalEdgeStyle;rounded=0;orthogonalLoop=1;jettySize=auto;html=1;exitX=0.5;exitY=0;exitDx=0;exitDy=0;" edge="1" parent="1" source="86VecYSXjzcAXP2YpM8D-5" target="86VecYSXjzcAXP2YpM8D-1">
          <mxGeometry relative="1" as="geometry" />
        </mxCell>
        <mxCell id="86VecYSXjzcAXP2YpM8D-19" style="edgeStyle=orthogonalEdgeStyle;rounded=0;orthogonalLoop=1;jettySize=auto;html=1;exitX=1;exitY=0.5;exitDx=0;exitDy=0;" edge="1" parent="1" source="86VecYSXjzcAXP2YpM8D-5" target="86VecYSXjzcAXP2YpM8D-13">
          <mxGeometry relative="1" as="geometry" />
        </mxCell>
        <mxCell id="86VecYSXjzcAXP2YpM8D-5" value="&lt;font style=&quot;font-size: 18px;&quot;&gt;Turmas&lt;br&gt;&lt;br&gt;&lt;/font&gt;" style="shape=parallelogram;perimeter=parallelogramPerimeter;whiteSpace=wrap;html=1;fixedSize=1;" vertex="1" parent="1">
          <mxGeometry x="160" y="215" width="120" height="60" as="geometry" />
        </mxCell>
        <mxCell id="86VecYSXjzcAXP2YpM8D-14" style="edgeStyle=orthogonalEdgeStyle;rounded=0;orthogonalLoop=1;jettySize=auto;html=1;exitX=1;exitY=0.3333333333333333;exitDx=0;exitDy=0;exitPerimeter=0;" edge="1" parent="1" source="86VecYSXjzcAXP2YpM8D-7" target="86VecYSXjzcAXP2YpM8D-30">
          <mxGeometry relative="1" as="geometry">
            <mxPoint x="160" y="380" as="targetPoint" />
          </mxGeometry>
        </mxCell>
        <mxCell id="86VecYSXjzcAXP2YpM8D-7" value="Alunos&lt;div&gt;&lt;br&gt;&lt;/div&gt;" style="shape=umlActor;verticalLabelPosition=bottom;verticalAlign=top;html=1;outlineConnect=0;" vertex="1" parent="1">
          <mxGeometry x="30" y="300" width="30" height="60" as="geometry" />
        </mxCell>
        <mxCell id="86VecYSXjzcAXP2YpM8D-12" value="&lt;font style=&quot;font-size: 18px;&quot;&gt;Atividades&lt;/font&gt;" style="shape=parallelogram;perimeter=parallelogramPerimeter;whiteSpace=wrap;html=1;fixedSize=1;" vertex="1" parent="1">
          <mxGeometry x="390" y="320" width="120" height="60" as="geometry" />
        </mxCell>
        <mxCell id="86VecYSXjzcAXP2YpM8D-13" value="&lt;div&gt;Monitor&lt;/div&gt;" style="shape=umlActor;verticalLabelPosition=bottom;verticalAlign=top;html=1;outlineConnect=0;" vertex="1" parent="1">
          <mxGeometry x="460" y="60" width="30" height="60" as="geometry" />
        </mxCell>
        <mxCell id="86VecYSXjzcAXP2YpM8D-20" value="1:n" style="text;strokeColor=none;fillColor=none;align=left;verticalAlign=middle;spacingLeft=4;spacingRight=4;overflow=hidden;points=[[0,0.5],[1,0.5]];portConstraint=eastwest;rotatable=0;whiteSpace=wrap;html=1;" vertex="1" parent="1">
          <mxGeometry x="140" y="140" width="80" height="30" as="geometry" />
        </mxCell>
        <mxCell id="86VecYSXjzcAXP2YpM8D-21" value="1:1" style="text;strokeColor=none;fillColor=none;align=left;verticalAlign=middle;spacingLeft=4;spacingRight=4;overflow=hidden;points=[[0,0.5],[1,0.5]];portConstraint=eastwest;rotatable=0;whiteSpace=wrap;html=1;" vertex="1" parent="1">
          <mxGeometry x="350" y="210" width="80" height="30" as="geometry" />
        </mxCell>
        <mxCell id="86VecYSXjzcAXP2YpM8D-22" value="1:n" style="text;html=1;align=center;verticalAlign=middle;whiteSpace=wrap;rounded=0;" vertex="1" parent="1">
          <mxGeometry x="90" y="290" width="60" height="30" as="geometry" />
        </mxCell>
        <mxCell id="86VecYSXjzcAXP2YpM8D-29" value="id_aluno" style="text;html=1;align=center;verticalAlign=middle;whiteSpace=wrap;rounded=0;" vertex="1" parent="1">
          <mxGeometry x="20" y="260" width="60" height="30" as="geometry" />
        </mxCell>
        <mxCell id="86VecYSXjzcAXP2YpM8D-42" style="edgeStyle=orthogonalEdgeStyle;rounded=0;orthogonalLoop=1;jettySize=auto;html=1;exitX=0.75;exitY=0;exitDx=0;exitDy=0;" edge="1" parent="1" source="86VecYSXjzcAXP2YpM8D-44" target="86VecYSXjzcAXP2YpM8D-5">
          <mxGeometry relative="1" as="geometry" />
        </mxCell>
        <mxCell id="86VecYSXjzcAXP2YpM8D-30" value="&lt;span style=&quot;font-family: Calibri; font-size: 21.3333px; font-style: italic; text-align: justify;&quot;&gt;matrícula&lt;/span&gt;" style="swimlane;fontStyle=0;childLayout=stackLayout;horizontal=1;startSize=30;horizontalStack=0;resizeParent=1;resizeParentMax=0;resizeLast=0;collapsible=1;marginBottom=0;whiteSpace=wrap;html=1;" vertex="1" parent="1">
          <mxGeometry x="90" y="450" width="140" height="120" as="geometry" />
        </mxCell>
        <mxCell id="86VecYSXjzcAXP2YpM8D-31" value="Data inicio" style="text;strokeColor=none;fillColor=none;align=left;verticalAlign=middle;spacingLeft=4;spacingRight=4;overflow=hidden;points=[[0,0.5],[1,0.5]];portConstraint=eastwest;rotatable=0;whiteSpace=wrap;html=1;" vertex="1" parent="86VecYSXjzcAXP2YpM8D-30">
          <mxGeometry y="30" width="140" height="30" as="geometry" />
        </mxCell>
        <mxCell id="86VecYSXjzcAXP2YpM8D-32" value="Data final" style="text;strokeColor=none;fillColor=none;align=left;verticalAlign=middle;spacingLeft=4;spacingRight=4;overflow=hidden;points=[[0,0.5],[1,0.5]];portConstraint=eastwest;rotatable=0;whiteSpace=wrap;html=1;" vertex="1" parent="86VecYSXjzcAXP2YpM8D-30">
          <mxGeometry y="60" width="140" height="30" as="geometry" />
        </mxCell>
        <mxCell id="86VecYSXjzcAXP2YpM8D-33" value="cod_matricula" style="text;strokeColor=none;fillColor=none;align=left;verticalAlign=middle;spacingLeft=4;spacingRight=4;overflow=hidden;points=[[0,0.5],[1,0.5]];portConstraint=eastwest;rotatable=0;whiteSpace=wrap;html=1;" vertex="1" parent="86VecYSXjzcAXP2YpM8D-30">
          <mxGeometry y="90" width="140" height="30" as="geometry" />
        </mxCell>
        <mxCell id="86VecYSXjzcAXP2YpM8D-34" value="id_aluno 15/05&lt;div&gt;&lt;br&gt;10 Aula de luta&lt;br&gt;-- Musculação&lt;br&gt;13 : Yoga&lt;/div&gt;" style="shape=parallelogram;perimeter=parallelogramPerimeter;whiteSpace=wrap;html=1;fixedSize=1;" vertex="1" parent="1">
          <mxGeometry x="417" y="660" width="116" height="80" as="geometry" />
        </mxCell>
        <mxCell id="86VecYSXjzcAXP2YpM8D-35" value="1065.2024.5" style="shape=parallelogram;perimeter=parallelogramPerimeter;whiteSpace=wrap;html=1;fixedSize=1;" vertex="1" parent="1">
          <mxGeometry x="280" y="700" width="120" height="60" as="geometry" />
        </mxCell>
        <mxCell id="86VecYSXjzcAXP2YpM8D-43" style="edgeStyle=orthogonalEdgeStyle;rounded=0;orthogonalLoop=1;jettySize=auto;html=1;exitX=0;exitY=0.75;exitDx=0;exitDy=0;" edge="1" parent="1" source="86VecYSXjzcAXP2YpM8D-47" target="86VecYSXjzcAXP2YpM8D-32">
          <mxGeometry relative="1" as="geometry" />
        </mxCell>
        <mxCell id="86VecYSXjzcAXP2YpM8D-39" value="Presença" style="rounded=1;whiteSpace=wrap;html=1;" vertex="1" parent="1">
          <mxGeometry x="370" y="490" width="120" height="60" as="geometry" />
        </mxCell>
        <mxCell id="86VecYSXjzcAXP2YpM8D-45" value="" style="edgeStyle=orthogonalEdgeStyle;rounded=0;orthogonalLoop=1;jettySize=auto;html=1;exitX=0.75;exitY=0;exitDx=0;exitDy=0;" edge="1" parent="1" source="86VecYSXjzcAXP2YpM8D-30" target="86VecYSXjzcAXP2YpM8D-44">
          <mxGeometry relative="1" as="geometry">
            <mxPoint x="195" y="450" as="sourcePoint" />
            <mxPoint x="220" y="275" as="targetPoint" />
          </mxGeometry>
        </mxCell>
        <mxCell id="86VecYSXjzcAXP2YpM8D-44" value="1:n" style="text;html=1;align=center;verticalAlign=middle;whiteSpace=wrap;rounded=0;" vertex="1" parent="1">
          <mxGeometry x="180" y="360" width="60" height="30" as="geometry" />
        </mxCell>
        <mxCell id="86VecYSXjzcAXP2YpM8D-49" value="" style="edgeStyle=orthogonalEdgeStyle;rounded=0;orthogonalLoop=1;jettySize=auto;html=1;exitX=0;exitY=0.75;exitDx=0;exitDy=0;" edge="1" parent="1" source="86VecYSXjzcAXP2YpM8D-39" target="86VecYSXjzcAXP2YpM8D-47">
          <mxGeometry relative="1" as="geometry">
            <mxPoint x="370" y="535" as="sourcePoint" />
            <mxPoint x="230" y="525" as="targetPoint" />
          </mxGeometry>
        </mxCell>
        <mxCell id="86VecYSXjzcAXP2YpM8D-47" value="1:n" style="text;html=1;align=center;verticalAlign=middle;whiteSpace=wrap;rounded=0;" vertex="1" parent="1">
          <mxGeometry x="270" y="520" width="60" height="30" as="geometry" />
        </mxCell>
        <mxCell id="86VecYSXjzcAXP2YpM8D-51" value="Terça tem judo&lt;div&gt;&lt;br/&gt;&lt;/div&gt;" style="rounded=0;whiteSpace=wrap;html=1;" vertex="1" parent="1">
          <mxGeometry x="530" y="400" width="120" height="60" as="geometry" />
        </mxCell>
      </root>
    </mxGraphModel>
  </diagram>
</mxfile>
